<mxfile host="app.diagrams.net" modified="2024-06-23T08:13:44.135Z" agent="Mozilla/5.0 (Windows NT 10.0; Win64; x64) AppleWebKit/537.36 (KHTML, like Gecko) Chrome/126.0.0.0 Safari/537.36" etag="O41nU6ak_8ZDy7TeuzSj" version="24.6.2" type="github">
  <diagram id="R2lEEEUBdFMjLlhIrx00" name="Page-1">
    <mxGraphModel dx="2122" dy="1639" grid="1" gridSize="10" guides="1" tooltips="1" connect="1" arrows="1" fold="1" page="1" pageScale="1" pageWidth="850" pageHeight="1100" math="0" shadow="0" extFonts="Permanent Marker^https://fonts.googleapis.com/css?family=Permanent+Marker">
      <root>
        <mxCell id="0" />
        <mxCell id="1" parent="0" />
        <mxCell id="koypFPOMvJZ9m-VjRx7N-19" style="edgeStyle=orthogonalEdgeStyle;rounded=0;orthogonalLoop=1;jettySize=auto;html=1;exitX=0.5;exitY=1;exitDx=0;exitDy=0;" parent="1" source="koypFPOMvJZ9m-VjRx7N-7" target="koypFPOMvJZ9m-VjRx7N-16" edge="1">
          <mxGeometry relative="1" as="geometry" />
        </mxCell>
        <mxCell id="koypFPOMvJZ9m-VjRx7N-20" style="edgeStyle=orthogonalEdgeStyle;rounded=0;orthogonalLoop=1;jettySize=auto;html=1;exitX=0.25;exitY=1;exitDx=0;exitDy=0;entryX=0.5;entryY=0;entryDx=0;entryDy=0;" parent="1" source="koypFPOMvJZ9m-VjRx7N-7" target="koypFPOMvJZ9m-VjRx7N-13" edge="1">
          <mxGeometry relative="1" as="geometry" />
        </mxCell>
        <mxCell id="koypFPOMvJZ9m-VjRx7N-21" style="edgeStyle=orthogonalEdgeStyle;rounded=0;orthogonalLoop=1;jettySize=auto;html=1;exitX=0.75;exitY=1;exitDx=0;exitDy=0;entryX=0.5;entryY=0;entryDx=0;entryDy=0;" parent="1" source="koypFPOMvJZ9m-VjRx7N-7" target="koypFPOMvJZ9m-VjRx7N-14" edge="1">
          <mxGeometry relative="1" as="geometry" />
        </mxCell>
        <mxCell id="koypFPOMvJZ9m-VjRx7N-22" style="edgeStyle=orthogonalEdgeStyle;rounded=0;orthogonalLoop=1;jettySize=auto;html=1;exitX=0;exitY=1;exitDx=0;exitDy=0;" parent="1" source="koypFPOMvJZ9m-VjRx7N-7" target="koypFPOMvJZ9m-VjRx7N-15" edge="1">
          <mxGeometry relative="1" as="geometry" />
        </mxCell>
        <mxCell id="koypFPOMvJZ9m-VjRx7N-23" style="edgeStyle=orthogonalEdgeStyle;rounded=0;orthogonalLoop=1;jettySize=auto;html=1;exitX=1;exitY=1;exitDx=0;exitDy=0;entryX=0.5;entryY=0;entryDx=0;entryDy=0;" parent="1" source="koypFPOMvJZ9m-VjRx7N-7" target="koypFPOMvJZ9m-VjRx7N-17" edge="1">
          <mxGeometry relative="1" as="geometry" />
        </mxCell>
        <mxCell id="eiq_rCYpfIqcew0OIlAt-13" style="edgeStyle=orthogonalEdgeStyle;rounded=0;orthogonalLoop=1;jettySize=auto;html=1;exitX=1;exitY=0.5;exitDx=0;exitDy=0;entryX=0;entryY=0.5;entryDx=0;entryDy=0;" parent="1" source="koypFPOMvJZ9m-VjRx7N-7" target="opmeOD8zLZbFtyZewvzy-45" edge="1">
          <mxGeometry relative="1" as="geometry" />
        </mxCell>
        <mxCell id="eiq_rCYpfIqcew0OIlAt-14" value="&lt;font style=&quot;font-size: 18px;&quot;&gt;&lt;b&gt;n&lt;/b&gt;&lt;/font&gt;" style="edgeLabel;html=1;align=center;verticalAlign=middle;resizable=0;points=[];" parent="eiq_rCYpfIqcew0OIlAt-13" vertex="1" connectable="0">
          <mxGeometry x="-0.2863" y="1" relative="1" as="geometry">
            <mxPoint as="offset" />
          </mxGeometry>
        </mxCell>
        <mxCell id="eiq_rCYpfIqcew0OIlAt-15" style="edgeStyle=orthogonalEdgeStyle;rounded=0;orthogonalLoop=1;jettySize=auto;html=1;exitX=1;exitY=0.75;exitDx=0;exitDy=0;entryX=0;entryY=0.5;entryDx=0;entryDy=0;" parent="1" source="koypFPOMvJZ9m-VjRx7N-7" target="eiq_rCYpfIqcew0OIlAt-11" edge="1">
          <mxGeometry relative="1" as="geometry" />
        </mxCell>
        <mxCell id="eiq_rCYpfIqcew0OIlAt-18" value="&lt;font style=&quot;font-size: 18px;&quot;&gt;&lt;b&gt;n&lt;/b&gt;&lt;/font&gt;" style="edgeLabel;html=1;align=center;verticalAlign=middle;resizable=0;points=[];" parent="eiq_rCYpfIqcew0OIlAt-15" vertex="1" connectable="0">
          <mxGeometry x="0.0409" y="-2" relative="1" as="geometry">
            <mxPoint as="offset" />
          </mxGeometry>
        </mxCell>
        <mxCell id="koypFPOMvJZ9m-VjRx7N-7" value="Products" style="html=1;overflow=block;blockSpacing=1;whiteSpace=wrap;fontSize=16.7;spacing=9;rounded=1;absoluteArcSize=1;arcSize=9;strokeWidth=NaN;lucidId=O1WxCh8SRQc-;fillColor=#9AC7BF;" parent="1" vertex="1">
          <mxGeometry x="-58.5" y="430" width="120" height="90" as="geometry" />
        </mxCell>
        <mxCell id="koypFPOMvJZ9m-VjRx7N-13" value="&lt;u&gt;ProductID&lt;/u&gt;" style="ellipse;whiteSpace=wrap;html=1;fillColor=#9AC7BF;" parent="1" vertex="1">
          <mxGeometry x="-110" y="643.5" width="93" height="60" as="geometry" />
        </mxCell>
        <mxCell id="koypFPOMvJZ9m-VjRx7N-14" value="ProductName" style="ellipse;whiteSpace=wrap;html=1;fillColor=#9AC7BF;" parent="1" vertex="1">
          <mxGeometry x="20" y="643.5" width="100" height="60" as="geometry" />
        </mxCell>
        <mxCell id="koypFPOMvJZ9m-VjRx7N-15" value="Price" style="ellipse;whiteSpace=wrap;html=1;fillColor=#9AC7BF;" parent="1" vertex="1">
          <mxGeometry x="-203" y="620" width="93" height="60" as="geometry" />
        </mxCell>
        <mxCell id="koypFPOMvJZ9m-VjRx7N-16" value="Picture" style="ellipse;whiteSpace=wrap;html=1;fillColor=#9AC7BF;" parent="1" vertex="1">
          <mxGeometry x="-48.5" y="583.5" width="100" height="60" as="geometry" />
        </mxCell>
        <mxCell id="koypFPOMvJZ9m-VjRx7N-17" value="Description" style="ellipse;whiteSpace=wrap;html=1;fillColor=#9AC7BF;" parent="1" vertex="1">
          <mxGeometry x="93.5" y="591.5" width="86.5" height="58.5" as="geometry" />
        </mxCell>
        <mxCell id="koypFPOMvJZ9m-VjRx7N-49" style="edgeStyle=orthogonalEdgeStyle;rounded=0;orthogonalLoop=1;jettySize=auto;html=1;exitX=0;exitY=0;exitDx=0;exitDy=0;entryX=0.5;entryY=1;entryDx=0;entryDy=0;" parent="1" source="koypFPOMvJZ9m-VjRx7N-34" target="koypFPOMvJZ9m-VjRx7N-38" edge="1">
          <mxGeometry relative="1" as="geometry" />
        </mxCell>
        <mxCell id="koypFPOMvJZ9m-VjRx7N-50" style="edgeStyle=orthogonalEdgeStyle;rounded=0;orthogonalLoop=1;jettySize=auto;html=1;exitX=0.25;exitY=0;exitDx=0;exitDy=0;entryX=0.5;entryY=1;entryDx=0;entryDy=0;" parent="1" source="koypFPOMvJZ9m-VjRx7N-34" target="koypFPOMvJZ9m-VjRx7N-39" edge="1">
          <mxGeometry relative="1" as="geometry" />
        </mxCell>
        <mxCell id="koypFPOMvJZ9m-VjRx7N-53" style="edgeStyle=orthogonalEdgeStyle;rounded=0;orthogonalLoop=1;jettySize=auto;html=1;exitX=0.25;exitY=1;exitDx=0;exitDy=0;entryX=0.5;entryY=0;entryDx=0;entryDy=0;" parent="1" source="koypFPOMvJZ9m-VjRx7N-34" target="koypFPOMvJZ9m-VjRx7N-42" edge="1">
          <mxGeometry relative="1" as="geometry" />
        </mxCell>
        <mxCell id="koypFPOMvJZ9m-VjRx7N-54" style="edgeStyle=orthogonalEdgeStyle;rounded=0;orthogonalLoop=1;jettySize=auto;html=1;exitX=0.75;exitY=1;exitDx=0;exitDy=0;" parent="1" source="koypFPOMvJZ9m-VjRx7N-34" target="koypFPOMvJZ9m-VjRx7N-41" edge="1">
          <mxGeometry relative="1" as="geometry" />
        </mxCell>
        <mxCell id="koypFPOMvJZ9m-VjRx7N-55" style="edgeStyle=orthogonalEdgeStyle;rounded=0;orthogonalLoop=1;jettySize=auto;html=1;exitX=0.5;exitY=1;exitDx=0;exitDy=0;entryX=0.5;entryY=0;entryDx=0;entryDy=0;" parent="1" source="koypFPOMvJZ9m-VjRx7N-34" target="koypFPOMvJZ9m-VjRx7N-43" edge="1">
          <mxGeometry relative="1" as="geometry" />
        </mxCell>
        <mxCell id="opmeOD8zLZbFtyZewvzy-2" style="edgeStyle=orthogonalEdgeStyle;rounded=0;orthogonalLoop=1;jettySize=auto;html=1;exitX=1;exitY=0.5;exitDx=0;exitDy=0;" parent="1" source="koypFPOMvJZ9m-VjRx7N-34" target="opmeOD8zLZbFtyZewvzy-1" edge="1">
          <mxGeometry relative="1" as="geometry" />
        </mxCell>
        <mxCell id="opmeOD8zLZbFtyZewvzy-5" value="1" style="edgeLabel;html=1;align=center;verticalAlign=middle;resizable=0;points=[];" parent="opmeOD8zLZbFtyZewvzy-2" vertex="1" connectable="0">
          <mxGeometry x="0.0333" y="1" relative="1" as="geometry">
            <mxPoint as="offset" />
          </mxGeometry>
        </mxCell>
        <mxCell id="rjHiSlkUi8NLxCztOsMR-1" value="&lt;font style=&quot;font-size: 18px;&quot;&gt;&lt;b&gt;1&lt;/b&gt;&lt;/font&gt;" style="edgeLabel;html=1;align=center;verticalAlign=middle;resizable=0;points=[];" parent="opmeOD8zLZbFtyZewvzy-2" vertex="1" connectable="0">
          <mxGeometry x="0.0386" y="3" relative="1" as="geometry">
            <mxPoint as="offset" />
          </mxGeometry>
        </mxCell>
        <mxCell id="opmeOD8zLZbFtyZewvzy-9" value="" style="edgeStyle=orthogonalEdgeStyle;rounded=0;orthogonalLoop=1;jettySize=auto;html=1;" parent="1" source="koypFPOMvJZ9m-VjRx7N-34" target="koypFPOMvJZ9m-VjRx7N-40" edge="1">
          <mxGeometry relative="1" as="geometry" />
        </mxCell>
        <mxCell id="koypFPOMvJZ9m-VjRx7N-34" value="Personal Info" style="html=1;overflow=block;blockSpacing=1;whiteSpace=wrap;fontSize=16.7;spacing=9;rounded=1;absoluteArcSize=1;arcSize=9;strokeWidth=NaN;lucidId=O1Wxrj9NdLNg;fillColor=#FFFF66;" parent="1" vertex="1">
          <mxGeometry x="180" y="-90" width="120" height="90" as="geometry" />
        </mxCell>
        <mxCell id="koypFPOMvJZ9m-VjRx7N-38" value="&lt;u&gt;Personal_ID&lt;/u&gt;" style="ellipse;whiteSpace=wrap;html=1;fillColor=#FFFF66;" parent="1" vertex="1">
          <mxGeometry x="-27" y="-210" width="97" height="67" as="geometry" />
        </mxCell>
        <mxCell id="koypFPOMvJZ9m-VjRx7N-39" value="Phone" style="ellipse;whiteSpace=wrap;html=1;fillColor=#FFFF66;" parent="1" vertex="1">
          <mxGeometry x="100" y="-240" width="107" height="67" as="geometry" />
        </mxCell>
        <mxCell id="koypFPOMvJZ9m-VjRx7N-40" value="Email" style="ellipse;whiteSpace=wrap;html=1;fillColor=#FFFF66;" parent="1" vertex="1">
          <mxGeometry x="224" y="-240" width="107" height="67" as="geometry" />
        </mxCell>
        <mxCell id="koypFPOMvJZ9m-VjRx7N-41" value="Address" style="ellipse;whiteSpace=wrap;html=1;fillColor=#FFFF66;" parent="1" vertex="1">
          <mxGeometry x="315" y="40" width="110" height="70" as="geometry" />
        </mxCell>
        <mxCell id="koypFPOMvJZ9m-VjRx7N-42" value="Postal Code" style="ellipse;whiteSpace=wrap;html=1;fillColor=#FFFF66;" parent="1" vertex="1">
          <mxGeometry x="56" y="50" width="110" height="70" as="geometry" />
        </mxCell>
        <mxCell id="koypFPOMvJZ9m-VjRx7N-43" value="City" style="ellipse;whiteSpace=wrap;html=1;fillColor=#FFFF66;" parent="1" vertex="1">
          <mxGeometry x="186.5" y="60" width="107" height="70" as="geometry" />
        </mxCell>
        <mxCell id="koypFPOMvJZ9m-VjRx7N-47" style="edgeStyle=orthogonalEdgeStyle;rounded=0;orthogonalLoop=1;jettySize=auto;html=1;exitX=0.5;exitY=0;exitDx=0;exitDy=0;entryX=0.5;entryY=1;entryDx=0;entryDy=0;" parent="1" source="koypFPOMvJZ9m-VjRx7N-44" target="koypFPOMvJZ9m-VjRx7N-46" edge="1">
          <mxGeometry relative="1" as="geometry" />
        </mxCell>
        <mxCell id="oFCh7oF6AgB1M2i4GYe6-4" style="edgeStyle=orthogonalEdgeStyle;rounded=0;orthogonalLoop=1;jettySize=auto;html=1;exitX=1;exitY=0.5;exitDx=0;exitDy=0;entryX=0;entryY=0.5;entryDx=0;entryDy=0;" parent="1" source="koypFPOMvJZ9m-VjRx7N-44" target="koypFPOMvJZ9m-VjRx7N-45" edge="1">
          <mxGeometry relative="1" as="geometry" />
        </mxCell>
        <mxCell id="koypFPOMvJZ9m-VjRx7N-44" value="Name" style="ellipse;whiteSpace=wrap;html=1;fillColor=#FFFF66;" parent="1" vertex="1">
          <mxGeometry x="331" y="-210" width="100" height="73.5" as="geometry" />
        </mxCell>
        <mxCell id="koypFPOMvJZ9m-VjRx7N-45" value="LName" style="ellipse;whiteSpace=wrap;html=1;fillColor=#FFFF66;" parent="1" vertex="1">
          <mxGeometry x="490" y="-208.25" width="100" height="70" as="geometry" />
        </mxCell>
        <mxCell id="koypFPOMvJZ9m-VjRx7N-46" value="FName" style="ellipse;whiteSpace=wrap;html=1;fillColor=#FFFF66;" parent="1" vertex="1">
          <mxGeometry x="431" y="-330" width="103" height="70" as="geometry" />
        </mxCell>
        <mxCell id="koypFPOMvJZ9m-VjRx7N-174" style="edgeStyle=orthogonalEdgeStyle;rounded=0;orthogonalLoop=1;jettySize=auto;html=1;exitX=0.5;exitY=0;exitDx=0;exitDy=0;entryX=0.5;entryY=1;entryDx=0;entryDy=0;" parent="1" source="koypFPOMvJZ9m-VjRx7N-59" target="koypFPOMvJZ9m-VjRx7N-61" edge="1">
          <mxGeometry relative="1" as="geometry" />
        </mxCell>
        <mxCell id="koypFPOMvJZ9m-VjRx7N-175" style="edgeStyle=orthogonalEdgeStyle;rounded=0;orthogonalLoop=1;jettySize=auto;html=1;exitX=0.25;exitY=0;exitDx=0;exitDy=0;entryX=0.5;entryY=1;entryDx=0;entryDy=0;" parent="1" source="koypFPOMvJZ9m-VjRx7N-59" target="koypFPOMvJZ9m-VjRx7N-60" edge="1">
          <mxGeometry relative="1" as="geometry" />
        </mxCell>
        <mxCell id="koypFPOMvJZ9m-VjRx7N-176" style="edgeStyle=orthogonalEdgeStyle;rounded=0;orthogonalLoop=1;jettySize=auto;html=1;exitX=0.75;exitY=0;exitDx=0;exitDy=0;entryX=0.5;entryY=1;entryDx=0;entryDy=0;" parent="1" source="koypFPOMvJZ9m-VjRx7N-59" target="koypFPOMvJZ9m-VjRx7N-62" edge="1">
          <mxGeometry relative="1" as="geometry" />
        </mxCell>
        <mxCell id="opmeOD8zLZbFtyZewvzy-7" value="&lt;font style=&quot;font-size: 18px;&quot;&gt;&lt;b&gt;1&lt;/b&gt;&lt;/font&gt;" style="edgeStyle=orthogonalEdgeStyle;rounded=0;orthogonalLoop=1;jettySize=auto;html=1;exitX=0;exitY=0.5;exitDx=0;exitDy=0;entryX=1;entryY=0.5;entryDx=0;entryDy=0;" parent="1" source="opmeOD8zLZbFtyZewvzy-6" target="koypFPOMvJZ9m-VjRx7N-59" edge="1">
          <mxGeometry relative="1" as="geometry" />
        </mxCell>
        <mxCell id="opmeOD8zLZbFtyZewvzy-23" style="edgeStyle=orthogonalEdgeStyle;rounded=0;orthogonalLoop=1;jettySize=auto;html=1;exitX=0.5;exitY=1;exitDx=0;exitDy=0;" parent="1" source="koypFPOMvJZ9m-VjRx7N-59" target="opmeOD8zLZbFtyZewvzy-17" edge="1">
          <mxGeometry relative="1" as="geometry" />
        </mxCell>
        <mxCell id="rjHiSlkUi8NLxCztOsMR-16" value="&lt;font style=&quot;font-size: 18px;&quot;&gt;&lt;b&gt;n&lt;/b&gt;&lt;/font&gt;" style="edgeLabel;html=1;align=center;verticalAlign=middle;resizable=0;points=[];" parent="opmeOD8zLZbFtyZewvzy-23" vertex="1" connectable="0">
          <mxGeometry x="0.0701" y="-1" relative="1" as="geometry">
            <mxPoint y="1" as="offset" />
          </mxGeometry>
        </mxCell>
        <mxCell id="opmeOD8zLZbFtyZewvzy-26" style="edgeStyle=orthogonalEdgeStyle;rounded=0;orthogonalLoop=1;jettySize=auto;html=1;exitX=0;exitY=0.5;exitDx=0;exitDy=0;entryX=0.5;entryY=0;entryDx=0;entryDy=0;" parent="1" source="koypFPOMvJZ9m-VjRx7N-59" target="opmeOD8zLZbFtyZewvzy-13" edge="1">
          <mxGeometry relative="1" as="geometry" />
        </mxCell>
        <mxCell id="rjHiSlkUi8NLxCztOsMR-4" value="&lt;font style=&quot;font-size: 18px;&quot;&gt;&lt;b&gt;1&lt;/b&gt;&lt;/font&gt;" style="edgeLabel;html=1;align=center;verticalAlign=middle;resizable=0;points=[];" parent="opmeOD8zLZbFtyZewvzy-26" vertex="1" connectable="0">
          <mxGeometry x="-0.3396" y="2" relative="1" as="geometry">
            <mxPoint as="offset" />
          </mxGeometry>
        </mxCell>
        <mxCell id="opmeOD8zLZbFtyZewvzy-28" style="edgeStyle=orthogonalEdgeStyle;rounded=0;orthogonalLoop=1;jettySize=auto;html=1;exitX=1;exitY=0.75;exitDx=0;exitDy=0;entryX=0.5;entryY=0;entryDx=0;entryDy=0;" parent="1" source="koypFPOMvJZ9m-VjRx7N-59" target="opmeOD8zLZbFtyZewvzy-14" edge="1">
          <mxGeometry relative="1" as="geometry" />
        </mxCell>
        <mxCell id="rjHiSlkUi8NLxCztOsMR-18" value="&lt;font style=&quot;font-size: 18px;&quot;&gt;&lt;b&gt;1&lt;/b&gt;&lt;/font&gt;" style="edgeLabel;html=1;align=center;verticalAlign=middle;resizable=0;points=[];" parent="opmeOD8zLZbFtyZewvzy-28" vertex="1" connectable="0">
          <mxGeometry x="-0.4483" y="-1" relative="1" as="geometry">
            <mxPoint as="offset" />
          </mxGeometry>
        </mxCell>
        <mxCell id="koypFPOMvJZ9m-VjRx7N-59" value="Customers" style="html=1;overflow=block;blockSpacing=1;whiteSpace=wrap;fontSize=16.7;spacing=9;rounded=1;absoluteArcSize=1;arcSize=9;strokeWidth=NaN;lucidId=O1Wx00iIs8_n;fillColor=#66FFFF;" parent="1" vertex="1">
          <mxGeometry x="-380" y="-54.5" width="120" height="90" as="geometry" />
        </mxCell>
        <mxCell id="koypFPOMvJZ9m-VjRx7N-60" value="&lt;u&gt;CustomerID&lt;/u&gt;" style="ellipse;whiteSpace=wrap;html=1;fillColor=#66FFFF;" parent="1" vertex="1">
          <mxGeometry x="-510" y="-182" width="103" height="70" as="geometry" />
        </mxCell>
        <mxCell id="koypFPOMvJZ9m-VjRx7N-61" value="Username" style="ellipse;whiteSpace=wrap;html=1;fillColor=#66FFFF;" parent="1" vertex="1">
          <mxGeometry x="-375" y="-210" width="110" height="70" as="geometry" />
        </mxCell>
        <mxCell id="koypFPOMvJZ9m-VjRx7N-62" value="Password" style="ellipse;whiteSpace=wrap;html=1;fillColor=#66FFFF;" parent="1" vertex="1">
          <mxGeometry x="-240" y="-187" width="110" height="75" as="geometry" />
        </mxCell>
        <mxCell id="koypFPOMvJZ9m-VjRx7N-66" style="edgeStyle=orthogonalEdgeStyle;rounded=0;orthogonalLoop=1;jettySize=auto;html=1;exitX=0;exitY=0.5;exitDx=0;exitDy=0;entryX=1;entryY=0.5;entryDx=0;entryDy=0;fillColor=#B5739D;" parent="1" source="koypFPOMvJZ9m-VjRx7N-69" target="koypFPOMvJZ9m-VjRx7N-74" edge="1">
          <mxGeometry relative="1" as="geometry" />
        </mxCell>
        <mxCell id="koypFPOMvJZ9m-VjRx7N-67" style="edgeStyle=orthogonalEdgeStyle;rounded=0;orthogonalLoop=1;jettySize=auto;html=1;exitX=0;exitY=0.25;exitDx=0;exitDy=0;entryX=1;entryY=0.5;entryDx=0;entryDy=0;" parent="1" source="koypFPOMvJZ9m-VjRx7N-69" target="koypFPOMvJZ9m-VjRx7N-77" edge="1">
          <mxGeometry relative="1" as="geometry" />
        </mxCell>
        <mxCell id="koypFPOMvJZ9m-VjRx7N-68" style="edgeStyle=orthogonalEdgeStyle;rounded=0;orthogonalLoop=1;jettySize=auto;html=1;exitX=0;exitY=0.75;exitDx=0;exitDy=0;entryX=1;entryY=0.5;entryDx=0;entryDy=0;" parent="1" source="koypFPOMvJZ9m-VjRx7N-69" target="koypFPOMvJZ9m-VjRx7N-75" edge="1">
          <mxGeometry relative="1" as="geometry" />
        </mxCell>
        <mxCell id="eiq_rCYpfIqcew0OIlAt-6" style="edgeStyle=orthogonalEdgeStyle;rounded=0;orthogonalLoop=1;jettySize=auto;html=1;exitX=0.5;exitY=1;exitDx=0;exitDy=0;" parent="1" source="koypFPOMvJZ9m-VjRx7N-69" target="eiq_rCYpfIqcew0OIlAt-1" edge="1">
          <mxGeometry relative="1" as="geometry">
            <Array as="points">
              <mxPoint x="-530" y="270" />
            </Array>
          </mxGeometry>
        </mxCell>
        <mxCell id="eiq_rCYpfIqcew0OIlAt-8" value="&lt;font style=&quot;font-size: 18px;&quot;&gt;&lt;b style=&quot;&quot;&gt;n&lt;/b&gt;&lt;/font&gt;" style="edgeLabel;html=1;align=center;verticalAlign=middle;resizable=0;points=[];" parent="eiq_rCYpfIqcew0OIlAt-6" vertex="1" connectable="0">
          <mxGeometry x="0.1343" y="-2" relative="1" as="geometry">
            <mxPoint as="offset" />
          </mxGeometry>
        </mxCell>
        <mxCell id="koypFPOMvJZ9m-VjRx7N-69" value="Orders" style="html=1;overflow=block;blockSpacing=1;whiteSpace=wrap;fontSize=16.7;spacing=9;rounded=1;absoluteArcSize=1;arcSize=9;strokeWidth=NaN;lucidId=O1WxsksWZlcZ;fillColor=#B5739D;" parent="1" vertex="1">
          <mxGeometry x="-620" y="180" width="120" height="90" as="geometry" />
        </mxCell>
        <mxCell id="koypFPOMvJZ9m-VjRx7N-74" value="&lt;u&gt;OrderID&lt;/u&gt;" style="ellipse;whiteSpace=wrap;html=1;fillColor=#B5739D;" parent="1" vertex="1">
          <mxGeometry x="-830" y="190" width="120" height="80" as="geometry" />
        </mxCell>
        <mxCell id="koypFPOMvJZ9m-VjRx7N-75" value="OrderDate" style="ellipse;whiteSpace=wrap;html=1;fillColor=#B5739D;" parent="1" vertex="1">
          <mxGeometry x="-820" y="300" width="120" height="80" as="geometry" />
        </mxCell>
        <mxCell id="koypFPOMvJZ9m-VjRx7N-124" style="edgeStyle=orthogonalEdgeStyle;rounded=0;orthogonalLoop=1;jettySize=auto;html=1;exitX=0;exitY=0;exitDx=0;exitDy=0;entryX=0.5;entryY=1;entryDx=0;entryDy=0;" parent="1" source="koypFPOMvJZ9m-VjRx7N-77" target="koypFPOMvJZ9m-VjRx7N-78" edge="1">
          <mxGeometry relative="1" as="geometry" />
        </mxCell>
        <mxCell id="oFCh7oF6AgB1M2i4GYe6-6" style="edgeStyle=orthogonalEdgeStyle;rounded=0;orthogonalLoop=1;jettySize=auto;html=1;exitX=1;exitY=0;exitDx=0;exitDy=0;entryX=0;entryY=1;entryDx=0;entryDy=0;" parent="1" source="koypFPOMvJZ9m-VjRx7N-77" target="koypFPOMvJZ9m-VjRx7N-79" edge="1">
          <mxGeometry relative="1" as="geometry" />
        </mxCell>
        <mxCell id="koypFPOMvJZ9m-VjRx7N-77" value="&lt;font style=&quot;font-size: 18px;&quot;&gt;Payment&lt;/font&gt;" style="ellipse;whiteSpace=wrap;html=1;fillColor=#B5739D;" parent="1" vertex="1">
          <mxGeometry x="-830" y="100" width="120" height="80" as="geometry" />
        </mxCell>
        <mxCell id="koypFPOMvJZ9m-VjRx7N-78" value="&lt;font style=&quot;font-size: 18px;&quot;&gt;PaymentType&lt;/font&gt;" style="ellipse;whiteSpace=wrap;html=1;fillColor=#B5739D;" parent="1" vertex="1">
          <mxGeometry x="-850" y="-23.25" width="120" height="80" as="geometry" />
        </mxCell>
        <mxCell id="koypFPOMvJZ9m-VjRx7N-79" value="&lt;font style=&quot;font-size: 18px;&quot;&gt;PaymentDate&lt;/font&gt;" style="ellipse;whiteSpace=wrap;html=1;fillColor=#B5739D;" parent="1" vertex="1">
          <mxGeometry x="-710" y="-10" width="120" height="80" as="geometry" />
        </mxCell>
        <mxCell id="koypFPOMvJZ9m-VjRx7N-83" style="edgeStyle=orthogonalEdgeStyle;rounded=0;orthogonalLoop=1;jettySize=auto;html=1;exitX=1;exitY=0.25;exitDx=0;exitDy=0;entryX=0;entryY=0.5;entryDx=0;entryDy=0;fillColor=#FF9933;" parent="1" source="koypFPOMvJZ9m-VjRx7N-86" target="koypFPOMvJZ9m-VjRx7N-88" edge="1">
          <mxGeometry relative="1" as="geometry" />
        </mxCell>
        <mxCell id="koypFPOMvJZ9m-VjRx7N-84" style="edgeStyle=orthogonalEdgeStyle;rounded=0;orthogonalLoop=1;jettySize=auto;html=1;exitX=1;exitY=0.5;exitDx=0;exitDy=0;entryX=0;entryY=0.5;entryDx=0;entryDy=0;fillColor=#FF9933;" parent="1" source="koypFPOMvJZ9m-VjRx7N-86" target="koypFPOMvJZ9m-VjRx7N-89" edge="1">
          <mxGeometry relative="1" as="geometry" />
        </mxCell>
        <mxCell id="koypFPOMvJZ9m-VjRx7N-85" style="edgeStyle=orthogonalEdgeStyle;rounded=0;orthogonalLoop=1;jettySize=auto;html=1;exitX=1;exitY=0.75;exitDx=0;exitDy=0;entryX=0;entryY=0.5;entryDx=0;entryDy=0;fillColor=#FF9933;" parent="1" source="koypFPOMvJZ9m-VjRx7N-86" target="koypFPOMvJZ9m-VjRx7N-90" edge="1">
          <mxGeometry relative="1" as="geometry" />
        </mxCell>
        <mxCell id="opmeOD8zLZbFtyZewvzy-44" style="edgeStyle=orthogonalEdgeStyle;rounded=0;orthogonalLoop=1;jettySize=auto;html=1;exitX=0.5;exitY=0;exitDx=0;exitDy=0;entryX=0.5;entryY=1;entryDx=0;entryDy=0;" parent="1" source="opmeOD8zLZbFtyZewvzy-40" target="koypFPOMvJZ9m-VjRx7N-86" edge="1">
          <mxGeometry relative="1" as="geometry" />
        </mxCell>
        <mxCell id="rjHiSlkUi8NLxCztOsMR-22" value="&lt;font style=&quot;font-size: 18px;&quot;&gt;&lt;b&gt;n&lt;/b&gt;&lt;/font&gt;" style="edgeLabel;html=1;align=center;verticalAlign=middle;resizable=0;points=[];" parent="opmeOD8zLZbFtyZewvzy-44" vertex="1" connectable="0">
          <mxGeometry x="-0.05" y="1" relative="1" as="geometry">
            <mxPoint as="offset" />
          </mxGeometry>
        </mxCell>
        <mxCell id="koypFPOMvJZ9m-VjRx7N-86" value="Carts" style="html=1;overflow=block;blockSpacing=1;whiteSpace=wrap;fontSize=16.7;spacing=9;rounded=1;absoluteArcSize=1;arcSize=9;strokeWidth=NaN;lucidId=O1WxNh_-pPMl;fillColor=#FF9933;" parent="1" vertex="1">
          <mxGeometry x="-230" y="180" width="120" height="90" as="geometry" />
        </mxCell>
        <mxCell id="koypFPOMvJZ9m-VjRx7N-88" value="ProductName" style="ellipse;whiteSpace=wrap;html=1;fillColor=#FF9933;" parent="1" vertex="1">
          <mxGeometry x="-60" y="109" width="100" height="72" as="geometry" />
        </mxCell>
        <mxCell id="koypFPOMvJZ9m-VjRx7N-89" value="Quantity" style="ellipse;whiteSpace=wrap;html=1;fillColor=#FF9933;" parent="1" vertex="1">
          <mxGeometry x="-44" y="195" width="100" height="60" as="geometry" />
        </mxCell>
        <mxCell id="koypFPOMvJZ9m-VjRx7N-90" value="TotalPrice" style="ellipse;whiteSpace=wrap;html=1;fillColor=#FF9933;" parent="1" vertex="1">
          <mxGeometry x="-44" y="270" width="110" height="70" as="geometry" />
        </mxCell>
        <mxCell id="koypFPOMvJZ9m-VjRx7N-98" value="Quantity" style="ellipse;whiteSpace=wrap;html=1;fillColor=#FFFFFF;" parent="1" vertex="1">
          <mxGeometry x="-440" y="650" width="120" height="80" as="geometry" />
        </mxCell>
        <mxCell id="koypFPOMvJZ9m-VjRx7N-128" style="edgeStyle=orthogonalEdgeStyle;rounded=0;orthogonalLoop=1;jettySize=auto;html=1;exitX=1;exitY=0;exitDx=0;exitDy=0;entryX=0;entryY=0.5;entryDx=0;entryDy=0;" parent="1" source="koypFPOMvJZ9m-VjRx7N-111" target="koypFPOMvJZ9m-VjRx7N-112" edge="1">
          <mxGeometry relative="1" as="geometry" />
        </mxCell>
        <mxCell id="koypFPOMvJZ9m-VjRx7N-129" style="edgeStyle=orthogonalEdgeStyle;rounded=0;orthogonalLoop=1;jettySize=auto;html=1;exitX=1;exitY=0.25;exitDx=0;exitDy=0;entryX=0;entryY=0.5;entryDx=0;entryDy=0;" parent="1" source="koypFPOMvJZ9m-VjRx7N-111" target="koypFPOMvJZ9m-VjRx7N-113" edge="1">
          <mxGeometry relative="1" as="geometry" />
        </mxCell>
        <mxCell id="koypFPOMvJZ9m-VjRx7N-130" style="edgeStyle=orthogonalEdgeStyle;rounded=0;orthogonalLoop=1;jettySize=auto;html=1;exitX=1;exitY=0.5;exitDx=0;exitDy=0;entryX=0;entryY=0.5;entryDx=0;entryDy=0;" parent="1" source="koypFPOMvJZ9m-VjRx7N-111" target="koypFPOMvJZ9m-VjRx7N-114" edge="1">
          <mxGeometry relative="1" as="geometry" />
        </mxCell>
        <mxCell id="koypFPOMvJZ9m-VjRx7N-131" style="edgeStyle=orthogonalEdgeStyle;rounded=0;orthogonalLoop=1;jettySize=auto;html=1;exitX=1;exitY=0.75;exitDx=0;exitDy=0;entryX=0;entryY=0.5;entryDx=0;entryDy=0;" parent="1" source="koypFPOMvJZ9m-VjRx7N-111" target="koypFPOMvJZ9m-VjRx7N-115" edge="1">
          <mxGeometry relative="1" as="geometry" />
        </mxCell>
        <mxCell id="opmeOD8zLZbFtyZewvzy-38" style="edgeStyle=orthogonalEdgeStyle;rounded=0;orthogonalLoop=1;jettySize=auto;html=1;exitX=0;exitY=0.5;exitDx=0;exitDy=0;entryX=1;entryY=0.5;entryDx=0;entryDy=0;" parent="1" source="koypFPOMvJZ9m-VjRx7N-111" target="opmeOD8zLZbFtyZewvzy-37" edge="1">
          <mxGeometry relative="1" as="geometry" />
        </mxCell>
        <mxCell id="rjHiSlkUi8NLxCztOsMR-23" value="&lt;font style=&quot;font-size: 18px;&quot;&gt;&lt;b&gt;1&lt;/b&gt;&lt;/font&gt;" style="edgeLabel;html=1;align=center;verticalAlign=middle;resizable=0;points=[];" parent="opmeOD8zLZbFtyZewvzy-38" vertex="1" connectable="0">
          <mxGeometry x="0.3136" relative="1" as="geometry">
            <mxPoint as="offset" />
          </mxGeometry>
        </mxCell>
        <mxCell id="koypFPOMvJZ9m-VjRx7N-111" value="Sellers" style="html=1;overflow=block;blockSpacing=1;whiteSpace=wrap;fontSize=16.7;spacing=9;rounded=1;absoluteArcSize=1;arcSize=9;strokeWidth=NaN;lucidId=O1WxEMNs407I;fillColor=#66B2FF;" parent="1" vertex="1">
          <mxGeometry x="500" y="186.5" width="120" height="90" as="geometry" />
        </mxCell>
        <mxCell id="koypFPOMvJZ9m-VjRx7N-112" value="&lt;u&gt;SellerID&lt;/u&gt;" style="ellipse;whiteSpace=wrap;html=1;fillColor=#66B2FF;" parent="1" vertex="1">
          <mxGeometry x="660" y="35.5" width="100" height="73" as="geometry" />
        </mxCell>
        <mxCell id="koypFPOMvJZ9m-VjRx7N-113" value="Username" style="ellipse;whiteSpace=wrap;html=1;fillColor=#66B2FF;" parent="1" vertex="1">
          <mxGeometry x="668" y="123.5" width="92" height="70" as="geometry" />
        </mxCell>
        <mxCell id="koypFPOMvJZ9m-VjRx7N-115" value="Shopname" style="ellipse;whiteSpace=wrap;html=1;fillColor=#66B2FF;" parent="1" vertex="1">
          <mxGeometry x="664" y="280" width="100" height="75" as="geometry" />
        </mxCell>
        <mxCell id="koypFPOMvJZ9m-VjRx7N-116" value="BusinessLicense" style="ellipse;whiteSpace=wrap;html=1;fillColor=#66B2FF;" parent="1" vertex="1">
          <mxGeometry x="660" y="363.5" width="96" height="78" as="geometry" />
        </mxCell>
        <mxCell id="koypFPOMvJZ9m-VjRx7N-114" value="Password" style="ellipse;whiteSpace=wrap;html=1;fillColor=#66B2FF;" parent="1" vertex="1">
          <mxGeometry x="674" y="194" width="94" height="75" as="geometry" />
        </mxCell>
        <mxCell id="koypFPOMvJZ9m-VjRx7N-132" style="edgeStyle=orthogonalEdgeStyle;rounded=0;orthogonalLoop=1;jettySize=auto;html=1;exitX=1;exitY=1;exitDx=0;exitDy=0;entryX=0.011;entryY=0.615;entryDx=0;entryDy=0;entryPerimeter=0;" parent="1" source="koypFPOMvJZ9m-VjRx7N-111" target="koypFPOMvJZ9m-VjRx7N-116" edge="1">
          <mxGeometry relative="1" as="geometry">
            <Array as="points">
              <mxPoint x="620" y="411" />
            </Array>
          </mxGeometry>
        </mxCell>
        <mxCell id="koypFPOMvJZ9m-VjRx7N-142" style="edgeStyle=orthogonalEdgeStyle;rounded=0;orthogonalLoop=1;jettySize=auto;html=1;exitX=0.25;exitY=1;exitDx=0;exitDy=0;entryX=0.5;entryY=0;entryDx=0;entryDy=0;" parent="1" source="koypFPOMvJZ9m-VjRx7N-133" target="koypFPOMvJZ9m-VjRx7N-139" edge="1">
          <mxGeometry relative="1" as="geometry" />
        </mxCell>
        <mxCell id="koypFPOMvJZ9m-VjRx7N-143" style="edgeStyle=orthogonalEdgeStyle;rounded=0;orthogonalLoop=1;jettySize=auto;html=1;exitX=0;exitY=1;exitDx=0;exitDy=0;entryX=0.5;entryY=0;entryDx=0;entryDy=0;" parent="1" source="koypFPOMvJZ9m-VjRx7N-133" target="koypFPOMvJZ9m-VjRx7N-141" edge="1">
          <mxGeometry relative="1" as="geometry" />
        </mxCell>
        <mxCell id="koypFPOMvJZ9m-VjRx7N-144" style="edgeStyle=orthogonalEdgeStyle;rounded=0;orthogonalLoop=1;jettySize=auto;html=1;exitX=0.75;exitY=1;exitDx=0;exitDy=0;" parent="1" source="koypFPOMvJZ9m-VjRx7N-133" target="koypFPOMvJZ9m-VjRx7N-137" edge="1">
          <mxGeometry relative="1" as="geometry" />
        </mxCell>
        <mxCell id="koypFPOMvJZ9m-VjRx7N-145" style="edgeStyle=orthogonalEdgeStyle;rounded=0;orthogonalLoop=1;jettySize=auto;html=1;exitX=1;exitY=1;exitDx=0;exitDy=0;" parent="1" source="koypFPOMvJZ9m-VjRx7N-133" target="koypFPOMvJZ9m-VjRx7N-135" edge="1">
          <mxGeometry relative="1" as="geometry" />
        </mxCell>
        <mxCell id="koypFPOMvJZ9m-VjRx7N-133" value="Discount" style="html=1;overflow=block;blockSpacing=1;whiteSpace=wrap;fontSize=16.7;spacing=9;rounded=1;absoluteArcSize=1;arcSize=9;strokeWidth=NaN;lucidId=O1WxFS6N8Owv;fillColor=#FF66FF;" parent="1" vertex="1">
          <mxGeometry x="764" y="745" width="120" height="90" as="geometry" />
        </mxCell>
        <mxCell id="koypFPOMvJZ9m-VjRx7N-135" value="&lt;u&gt;DiscountID&lt;/u&gt;" style="ellipse;whiteSpace=wrap;html=1;fillColor=#FF66FF;" parent="1" vertex="1">
          <mxGeometry x="973" y="871.5" width="90" height="70" as="geometry" />
        </mxCell>
        <mxCell id="koypFPOMvJZ9m-VjRx7N-137" value="DiscountPercent" style="ellipse;whiteSpace=wrap;html=1;fillColor=#FF66FF;" parent="1" vertex="1">
          <mxGeometry x="835" y="891.5" width="90" height="70" as="geometry" />
        </mxCell>
        <mxCell id="koypFPOMvJZ9m-VjRx7N-139" value="StartDate" style="ellipse;whiteSpace=wrap;html=1;fillColor=#FF66FF;" parent="1" vertex="1">
          <mxGeometry x="735" y="891.5" width="90" height="70" as="geometry" />
        </mxCell>
        <mxCell id="koypFPOMvJZ9m-VjRx7N-141" value="EndDate" style="ellipse;whiteSpace=wrap;html=1;fillColor=#FF66FF;" parent="1" vertex="1">
          <mxGeometry x="623" y="871.5" width="90" height="70" as="geometry" />
        </mxCell>
        <mxCell id="koypFPOMvJZ9m-VjRx7N-159" style="edgeStyle=orthogonalEdgeStyle;rounded=0;orthogonalLoop=1;jettySize=auto;html=1;exitX=1;exitY=0;exitDx=0;exitDy=0;entryX=0;entryY=0.5;entryDx=0;entryDy=0;" parent="1" source="koypFPOMvJZ9m-VjRx7N-146" target="koypFPOMvJZ9m-VjRx7N-158" edge="1">
          <mxGeometry relative="1" as="geometry" />
        </mxCell>
        <mxCell id="koypFPOMvJZ9m-VjRx7N-160" style="edgeStyle=orthogonalEdgeStyle;rounded=0;orthogonalLoop=1;jettySize=auto;html=1;exitX=1;exitY=0.25;exitDx=0;exitDy=0;entryX=0;entryY=0.5;entryDx=0;entryDy=0;" parent="1" source="koypFPOMvJZ9m-VjRx7N-146" target="koypFPOMvJZ9m-VjRx7N-153" edge="1">
          <mxGeometry relative="1" as="geometry" />
        </mxCell>
        <mxCell id="koypFPOMvJZ9m-VjRx7N-161" style="edgeStyle=orthogonalEdgeStyle;rounded=0;orthogonalLoop=1;jettySize=auto;html=1;exitX=1;exitY=0.5;exitDx=0;exitDy=0;entryX=0;entryY=0.5;entryDx=0;entryDy=0;" parent="1" source="koypFPOMvJZ9m-VjRx7N-146" target="koypFPOMvJZ9m-VjRx7N-155" edge="1">
          <mxGeometry relative="1" as="geometry" />
        </mxCell>
        <mxCell id="koypFPOMvJZ9m-VjRx7N-162" style="edgeStyle=orthogonalEdgeStyle;rounded=0;orthogonalLoop=1;jettySize=auto;html=1;exitX=1;exitY=0.75;exitDx=0;exitDy=0;entryX=0;entryY=0.5;entryDx=0;entryDy=0;" parent="1" source="koypFPOMvJZ9m-VjRx7N-146" target="koypFPOMvJZ9m-VjRx7N-157" edge="1">
          <mxGeometry relative="1" as="geometry">
            <Array as="points">
              <mxPoint x="990" y="257" />
              <mxPoint x="990" y="365" />
            </Array>
          </mxGeometry>
        </mxCell>
        <mxCell id="opmeOD8zLZbFtyZewvzy-11" style="edgeStyle=orthogonalEdgeStyle;rounded=0;orthogonalLoop=1;jettySize=auto;html=1;exitX=0.5;exitY=0;exitDx=0;exitDy=0;entryX=0.5;entryY=1;entryDx=0;entryDy=0;" parent="1" source="koypFPOMvJZ9m-VjRx7N-146" target="opmeOD8zLZbFtyZewvzy-10" edge="1">
          <mxGeometry relative="1" as="geometry" />
        </mxCell>
        <mxCell id="rjHiSlkUi8NLxCztOsMR-2" value="&lt;font style=&quot;font-size: 18px;&quot;&gt;&lt;b&gt;1&lt;/b&gt;&lt;/font&gt;" style="edgeLabel;html=1;align=center;verticalAlign=middle;resizable=0;points=[];" parent="opmeOD8zLZbFtyZewvzy-11" vertex="1" connectable="0">
          <mxGeometry x="0.0947" y="-2" relative="1" as="geometry">
            <mxPoint as="offset" />
          </mxGeometry>
        </mxCell>
        <mxCell id="opmeOD8zLZbFtyZewvzy-51" style="edgeStyle=orthogonalEdgeStyle;rounded=0;orthogonalLoop=1;jettySize=auto;html=1;exitX=0.5;exitY=1;exitDx=0;exitDy=0;entryX=1;entryY=0.5;entryDx=0;entryDy=0;" parent="1" source="koypFPOMvJZ9m-VjRx7N-146" target="opmeOD8zLZbFtyZewvzy-48" edge="1">
          <mxGeometry relative="1" as="geometry" />
        </mxCell>
        <mxCell id="rjHiSlkUi8NLxCztOsMR-25" value="&lt;font style=&quot;font-size: 18px;&quot;&gt;&lt;b&gt;1&lt;/b&gt;&lt;/font&gt;" style="edgeLabel;html=1;align=center;verticalAlign=middle;resizable=0;points=[];" parent="opmeOD8zLZbFtyZewvzy-51" vertex="1" connectable="0">
          <mxGeometry x="-0.6407" y="-2" relative="1" as="geometry">
            <mxPoint as="offset" />
          </mxGeometry>
        </mxCell>
        <mxCell id="opmeOD8zLZbFtyZewvzy-53" style="edgeStyle=orthogonalEdgeStyle;rounded=0;orthogonalLoop=1;jettySize=auto;html=1;exitX=0.75;exitY=1;exitDx=0;exitDy=0;entryX=0.5;entryY=0;entryDx=0;entryDy=0;" parent="1" source="koypFPOMvJZ9m-VjRx7N-146" target="opmeOD8zLZbFtyZewvzy-52" edge="1">
          <mxGeometry relative="1" as="geometry">
            <mxPoint x="930" y="570" as="targetPoint" />
            <Array as="points">
              <mxPoint x="940" y="540" />
            </Array>
          </mxGeometry>
        </mxCell>
        <mxCell id="rjHiSlkUi8NLxCztOsMR-27" value="&lt;font style=&quot;font-size: 18px;&quot;&gt;&lt;b&gt;1&lt;/b&gt;&lt;/font&gt;" style="edgeLabel;html=1;align=center;verticalAlign=middle;resizable=0;points=[];" parent="opmeOD8zLZbFtyZewvzy-53" vertex="1" connectable="0">
          <mxGeometry x="-0.4907" y="1" relative="1" as="geometry">
            <mxPoint as="offset" />
          </mxGeometry>
        </mxCell>
        <mxCell id="koypFPOMvJZ9m-VjRx7N-146" value="Admin" style="html=1;overflow=block;blockSpacing=1;whiteSpace=wrap;fontSize=16.7;spacing=9;rounded=1;absoluteArcSize=1;arcSize=9;strokeWidth=NaN;lucidId=O1WxjDPdvXiL;fillColor=#FF66B3;" parent="1" vertex="1">
          <mxGeometry x="850" y="190" width="120" height="90" as="geometry" />
        </mxCell>
        <mxCell id="koypFPOMvJZ9m-VjRx7N-153" value="AdminFname" style="ellipse;whiteSpace=wrap;html=1;fillColor=#FF66B3;" parent="1" vertex="1">
          <mxGeometry x="1032" y="140" width="110" height="70" as="geometry" />
        </mxCell>
        <mxCell id="koypFPOMvJZ9m-VjRx7N-155" value="AdminLname" style="ellipse;whiteSpace=wrap;html=1;fillColor=#FF66B3;" parent="1" vertex="1">
          <mxGeometry x="1039" y="230" width="100" height="70" as="geometry" />
        </mxCell>
        <mxCell id="koypFPOMvJZ9m-VjRx7N-157" value="AdminPassword" style="ellipse;whiteSpace=wrap;html=1;fillColor=#FF66B3;" parent="1" vertex="1">
          <mxGeometry x="1032" y="330" width="110" height="70" as="geometry" />
        </mxCell>
        <mxCell id="koypFPOMvJZ9m-VjRx7N-158" value="&lt;u&gt;AdminID&lt;/u&gt;" style="ellipse;whiteSpace=wrap;html=1;fontSize=12;fillColor=#FF66B3;" parent="1" vertex="1">
          <mxGeometry x="1032" y="50" width="110" height="70" as="geometry" />
        </mxCell>
        <mxCell id="koypFPOMvJZ9m-VjRx7N-171" style="edgeStyle=orthogonalEdgeStyle;rounded=0;orthogonalLoop=1;jettySize=auto;html=1;exitX=0.5;exitY=1;exitDx=0;exitDy=0;" parent="1" source="koypFPOMvJZ9m-VjRx7N-163" target="koypFPOMvJZ9m-VjRx7N-166" edge="1">
          <mxGeometry relative="1" as="geometry" />
        </mxCell>
        <mxCell id="koypFPOMvJZ9m-VjRx7N-172" style="edgeStyle=orthogonalEdgeStyle;rounded=0;orthogonalLoop=1;jettySize=auto;html=1;exitX=0.25;exitY=1;exitDx=0;exitDy=0;entryX=0.5;entryY=0;entryDx=0;entryDy=0;" parent="1" source="koypFPOMvJZ9m-VjRx7N-163" target="koypFPOMvJZ9m-VjRx7N-170" edge="1">
          <mxGeometry relative="1" as="geometry" />
        </mxCell>
        <mxCell id="koypFPOMvJZ9m-VjRx7N-173" style="edgeStyle=orthogonalEdgeStyle;rounded=0;orthogonalLoop=1;jettySize=auto;html=1;exitX=0.75;exitY=1;exitDx=0;exitDy=0;" parent="1" source="koypFPOMvJZ9m-VjRx7N-163" target="koypFPOMvJZ9m-VjRx7N-168" edge="1">
          <mxGeometry relative="1" as="geometry" />
        </mxCell>
        <mxCell id="koypFPOMvJZ9m-VjRx7N-163" value="Category" style="html=1;overflow=block;blockSpacing=1;whiteSpace=wrap;fontSize=20;spacing=9;rounded=1;absoluteArcSize=1;arcSize=9;strokeWidth=NaN;lucidId=O1WxHwZG4rg.;fillColor=#B3FF66;" parent="1" vertex="1">
          <mxGeometry x="520" y="495" width="120" height="90" as="geometry" />
        </mxCell>
        <mxCell id="koypFPOMvJZ9m-VjRx7N-166" value="&lt;u&gt;CategoryID&lt;/u&gt;" style="ellipse;whiteSpace=wrap;html=1;fontSize=12;fillColor=#B3FF66;" parent="1" vertex="1">
          <mxGeometry x="525" y="656.75" width="110" height="70" as="geometry" />
        </mxCell>
        <mxCell id="koypFPOMvJZ9m-VjRx7N-168" value="CategoryName" style="ellipse;whiteSpace=wrap;html=1;fontSize=12;fillColor=#B3FF66;" parent="1" vertex="1">
          <mxGeometry x="640" y="638.5" width="110" height="70" as="geometry" />
        </mxCell>
        <mxCell id="koypFPOMvJZ9m-VjRx7N-170" value="Description" style="ellipse;whiteSpace=wrap;html=1;fontSize=12;fillColor=#B3FF66;" parent="1" vertex="1">
          <mxGeometry x="415" y="628.5" width="110" height="70" as="geometry" />
        </mxCell>
        <mxCell id="opmeOD8zLZbFtyZewvzy-3" value="&lt;font style=&quot;font-size: 18px;&quot;&gt;&lt;b&gt;1&lt;/b&gt;&lt;/font&gt;" style="edgeStyle=orthogonalEdgeStyle;rounded=0;orthogonalLoop=1;jettySize=auto;html=1;exitX=0.5;exitY=1;exitDx=0;exitDy=0;" parent="1" source="opmeOD8zLZbFtyZewvzy-1" target="koypFPOMvJZ9m-VjRx7N-111" edge="1">
          <mxGeometry relative="1" as="geometry" />
        </mxCell>
        <mxCell id="opmeOD8zLZbFtyZewvzy-1" value="Has" style="rhombus;whiteSpace=wrap;html=1;" parent="1" vertex="1">
          <mxGeometry x="520" y="-20" width="80" height="80" as="geometry" />
        </mxCell>
        <mxCell id="opmeOD8zLZbFtyZewvzy-8" value="&lt;font style=&quot;font-size: 18px;&quot;&gt;&lt;b&gt;1&lt;/b&gt;&lt;/font&gt;" style="edgeStyle=orthogonalEdgeStyle;rounded=0;orthogonalLoop=1;jettySize=auto;html=1;entryX=1;entryY=0.5;entryDx=0;entryDy=0;" parent="1" source="koypFPOMvJZ9m-VjRx7N-34" target="opmeOD8zLZbFtyZewvzy-6" edge="1">
          <mxGeometry relative="1" as="geometry" />
        </mxCell>
        <mxCell id="opmeOD8zLZbFtyZewvzy-6" value="Has" style="rhombus;whiteSpace=wrap;html=1;" parent="1" vertex="1">
          <mxGeometry x="-70" y="-85" width="80" height="80" as="geometry" />
        </mxCell>
        <mxCell id="opmeOD8zLZbFtyZewvzy-12" style="edgeStyle=orthogonalEdgeStyle;rounded=0;orthogonalLoop=1;jettySize=auto;html=1;exitX=0;exitY=0.5;exitDx=0;exitDy=0;entryX=1;entryY=0.25;entryDx=0;entryDy=0;" parent="1" source="opmeOD8zLZbFtyZewvzy-10" target="koypFPOMvJZ9m-VjRx7N-34" edge="1">
          <mxGeometry relative="1" as="geometry" />
        </mxCell>
        <mxCell id="rjHiSlkUi8NLxCztOsMR-3" value="&lt;font style=&quot;font-size: 18px;&quot;&gt;&lt;b&gt;n&lt;/b&gt;&lt;/font&gt;" style="edgeLabel;html=1;align=center;verticalAlign=middle;resizable=0;points=[];" parent="opmeOD8zLZbFtyZewvzy-12" vertex="1" connectable="0">
          <mxGeometry x="-0.2502" relative="1" as="geometry">
            <mxPoint as="offset" />
          </mxGeometry>
        </mxCell>
        <mxCell id="opmeOD8zLZbFtyZewvzy-10" value="Manage" style="rhombus;whiteSpace=wrap;html=1;" parent="1" vertex="1">
          <mxGeometry x="870" y="-80" width="80" height="80" as="geometry" />
        </mxCell>
        <mxCell id="opmeOD8zLZbFtyZewvzy-27" style="edgeStyle=orthogonalEdgeStyle;rounded=0;orthogonalLoop=1;jettySize=auto;html=1;exitX=0.5;exitY=1;exitDx=0;exitDy=0;entryX=0.5;entryY=0;entryDx=0;entryDy=0;" parent="1" source="opmeOD8zLZbFtyZewvzy-13" target="koypFPOMvJZ9m-VjRx7N-69" edge="1">
          <mxGeometry relative="1" as="geometry" />
        </mxCell>
        <mxCell id="rjHiSlkUi8NLxCztOsMR-5" value="&lt;font style=&quot;font-size: 18px;&quot;&gt;&lt;b&gt;n&lt;/b&gt;&lt;/font&gt;" style="edgeLabel;html=1;align=center;verticalAlign=middle;resizable=0;points=[];" parent="opmeOD8zLZbFtyZewvzy-27" vertex="1" connectable="0">
          <mxGeometry x="0.0707" y="-2" relative="1" as="geometry">
            <mxPoint as="offset" />
          </mxGeometry>
        </mxCell>
        <mxCell id="opmeOD8zLZbFtyZewvzy-13" value="Orders" style="rhombus;whiteSpace=wrap;html=1;" parent="1" vertex="1">
          <mxGeometry x="-487" y="56.75" width="80" height="80" as="geometry" />
        </mxCell>
        <mxCell id="opmeOD8zLZbFtyZewvzy-29" style="edgeStyle=orthogonalEdgeStyle;rounded=0;orthogonalLoop=1;jettySize=auto;html=1;exitX=0.5;exitY=1;exitDx=0;exitDy=0;entryX=0.5;entryY=0;entryDx=0;entryDy=0;" parent="1" source="opmeOD8zLZbFtyZewvzy-14" target="koypFPOMvJZ9m-VjRx7N-86" edge="1">
          <mxGeometry relative="1" as="geometry" />
        </mxCell>
        <mxCell id="rjHiSlkUi8NLxCztOsMR-19" value="&lt;font style=&quot;font-size: 18px;&quot;&gt;&lt;b&gt;1&lt;/b&gt;&lt;/font&gt;" style="edgeLabel;html=1;align=center;verticalAlign=middle;resizable=0;points=[];" parent="opmeOD8zLZbFtyZewvzy-29" vertex="1" connectable="0">
          <mxGeometry x="0.0222" y="3" relative="1" as="geometry">
            <mxPoint as="offset" />
          </mxGeometry>
        </mxCell>
        <mxCell id="opmeOD8zLZbFtyZewvzy-14" value="ProductCart" style="rhombus;whiteSpace=wrap;html=1;" parent="1" vertex="1">
          <mxGeometry x="-260" y="60" width="80" height="80" as="geometry" />
        </mxCell>
        <mxCell id="opmeOD8zLZbFtyZewvzy-15" style="edgeStyle=orthogonalEdgeStyle;rounded=0;orthogonalLoop=1;jettySize=auto;html=1;exitX=0;exitY=0;exitDx=0;exitDy=0;entryX=0.5;entryY=1;entryDx=0;entryDy=0;" parent="1" source="opmeOD8zLZbFtyZewvzy-17" target="opmeOD8zLZbFtyZewvzy-19" edge="1">
          <mxGeometry relative="1" as="geometry" />
        </mxCell>
        <mxCell id="opmeOD8zLZbFtyZewvzy-42" style="edgeStyle=orthogonalEdgeStyle;rounded=0;orthogonalLoop=1;jettySize=auto;html=1;exitX=1;exitY=0.5;exitDx=0;exitDy=0;entryX=0;entryY=0.25;entryDx=0;entryDy=0;" parent="1" source="opmeOD8zLZbFtyZewvzy-17" target="koypFPOMvJZ9m-VjRx7N-7" edge="1">
          <mxGeometry relative="1" as="geometry" />
        </mxCell>
        <mxCell id="rjHiSlkUi8NLxCztOsMR-17" value="&lt;font style=&quot;font-size: 18px;&quot;&gt;&lt;b&gt;n&lt;/b&gt;&lt;/font&gt;" style="edgeLabel;html=1;align=center;verticalAlign=middle;resizable=0;points=[];" parent="opmeOD8zLZbFtyZewvzy-42" vertex="1" connectable="0">
          <mxGeometry x="-0.5601" relative="1" as="geometry">
            <mxPoint y="1" as="offset" />
          </mxGeometry>
        </mxCell>
        <mxCell id="opmeOD8zLZbFtyZewvzy-17" value="comment" style="html=1;overflow=block;blockSpacing=1;whiteSpace=wrap;rhombus;fontSize=16.7;spacing=3.8;rounded=1;absoluteArcSize=1;arcSize=9;strokeWidth=NaN;lucidId=O1WxYz_HGPvT;fillColor=#FFFFFF;" parent="1" vertex="1">
          <mxGeometry x="-380" y="363.5" width="120" height="90" as="geometry" />
        </mxCell>
        <mxCell id="opmeOD8zLZbFtyZewvzy-18" value="CommentDate" style="ellipse;whiteSpace=wrap;html=1;" parent="1" vertex="1">
          <mxGeometry x="-505" y="367.5" width="93" height="70" as="geometry" />
        </mxCell>
        <mxCell id="opmeOD8zLZbFtyZewvzy-19" value="Content" style="ellipse;whiteSpace=wrap;html=1;" parent="1" vertex="1">
          <mxGeometry x="-470" y="260" width="110" height="60" as="geometry" />
        </mxCell>
        <mxCell id="opmeOD8zLZbFtyZewvzy-20" value="CommentID" style="ellipse;whiteSpace=wrap;html=1;" parent="1" vertex="1">
          <mxGeometry x="-456" y="495" width="111" height="70" as="geometry" />
        </mxCell>
        <mxCell id="opmeOD8zLZbFtyZewvzy-21" style="edgeStyle=orthogonalEdgeStyle;rounded=0;orthogonalLoop=1;jettySize=auto;html=1;exitX=0;exitY=0.5;exitDx=0;exitDy=0;entryX=1;entryY=0.613;entryDx=0;entryDy=0;entryPerimeter=0;" parent="1" source="opmeOD8zLZbFtyZewvzy-17" target="opmeOD8zLZbFtyZewvzy-18" edge="1">
          <mxGeometry relative="1" as="geometry" />
        </mxCell>
        <mxCell id="opmeOD8zLZbFtyZewvzy-39" style="edgeStyle=orthogonalEdgeStyle;rounded=0;orthogonalLoop=1;jettySize=auto;html=1;exitX=0;exitY=0.5;exitDx=0;exitDy=0;entryX=0.75;entryY=0;entryDx=0;entryDy=0;" parent="1" source="opmeOD8zLZbFtyZewvzy-37" target="koypFPOMvJZ9m-VjRx7N-7" edge="1">
          <mxGeometry relative="1" as="geometry">
            <Array as="points">
              <mxPoint x="80" y="234" />
              <mxPoint x="80" y="430" />
            </Array>
          </mxGeometry>
        </mxCell>
        <mxCell id="rjHiSlkUi8NLxCztOsMR-24" value="&lt;font style=&quot;font-size: 18px;&quot;&gt;&lt;b&gt;n&lt;/b&gt;&lt;/font&gt;" style="edgeLabel;html=1;align=center;verticalAlign=middle;resizable=0;points=[];" parent="opmeOD8zLZbFtyZewvzy-39" vertex="1" connectable="0">
          <mxGeometry x="-0.5287" relative="1" as="geometry">
            <mxPoint x="1" as="offset" />
          </mxGeometry>
        </mxCell>
        <mxCell id="opmeOD8zLZbFtyZewvzy-37" value="Supply" style="rhombus;whiteSpace=wrap;html=1;" parent="1" vertex="1">
          <mxGeometry x="251" y="191.5" width="80" height="80" as="geometry" />
        </mxCell>
        <mxCell id="opmeOD8zLZbFtyZewvzy-43" style="edgeStyle=orthogonalEdgeStyle;rounded=0;orthogonalLoop=1;jettySize=auto;html=1;exitX=0.25;exitY=0;exitDx=0;exitDy=0;entryX=1;entryY=0.5;entryDx=0;entryDy=0;" parent="1" source="koypFPOMvJZ9m-VjRx7N-7" target="opmeOD8zLZbFtyZewvzy-40" edge="1">
          <mxGeometry relative="1" as="geometry" />
        </mxCell>
        <mxCell id="rjHiSlkUi8NLxCztOsMR-20" value="&lt;b&gt;&lt;font style=&quot;font-size: 18px;&quot;&gt;n&lt;/font&gt;&lt;/b&gt;" style="edgeLabel;html=1;align=center;verticalAlign=middle;resizable=0;points=[];" parent="opmeOD8zLZbFtyZewvzy-43" vertex="1" connectable="0">
          <mxGeometry x="0.3939" y="-2" relative="1" as="geometry">
            <mxPoint as="offset" />
          </mxGeometry>
        </mxCell>
        <mxCell id="opmeOD8zLZbFtyZewvzy-40" value="Add" style="rhombus;whiteSpace=wrap;html=1;" parent="1" vertex="1">
          <mxGeometry x="-210" y="310" width="80" height="80" as="geometry" />
        </mxCell>
        <mxCell id="opmeOD8zLZbFtyZewvzy-58" style="edgeStyle=orthogonalEdgeStyle;rounded=0;orthogonalLoop=1;jettySize=auto;html=1;exitX=1;exitY=0.5;exitDx=0;exitDy=0;entryX=0;entryY=0.5;entryDx=0;entryDy=0;" parent="1" source="opmeOD8zLZbFtyZewvzy-45" target="koypFPOMvJZ9m-VjRx7N-163" edge="1">
          <mxGeometry relative="1" as="geometry" />
        </mxCell>
        <mxCell id="rjHiSlkUi8NLxCztOsMR-30" value="&lt;font style=&quot;font-size: 18px;&quot;&gt;&lt;b&gt;n&lt;/b&gt;&lt;/font&gt;" style="edgeLabel;html=1;align=center;verticalAlign=middle;resizable=0;points=[];" parent="opmeOD8zLZbFtyZewvzy-58" vertex="1" connectable="0">
          <mxGeometry x="-0.4708" y="1" relative="1" as="geometry">
            <mxPoint as="offset" />
          </mxGeometry>
        </mxCell>
        <mxCell id="opmeOD8zLZbFtyZewvzy-45" value="Relationship" style="rhombus;whiteSpace=wrap;html=1;" parent="1" vertex="1">
          <mxGeometry x="271" y="441.5" width="80" height="80" as="geometry" />
        </mxCell>
        <mxCell id="opmeOD8zLZbFtyZewvzy-49" style="edgeStyle=orthogonalEdgeStyle;rounded=0;orthogonalLoop=1;jettySize=auto;html=1;exitX=0;exitY=0.5;exitDx=0;exitDy=0;entryX=1;entryY=0.25;entryDx=0;entryDy=0;" parent="1" source="opmeOD8zLZbFtyZewvzy-48" target="koypFPOMvJZ9m-VjRx7N-7" edge="1">
          <mxGeometry relative="1" as="geometry" />
        </mxCell>
        <mxCell id="rjHiSlkUi8NLxCztOsMR-26" value="&lt;font style=&quot;font-size: 18px;&quot;&gt;&lt;b&gt;n&lt;/b&gt;&lt;/font&gt;" style="edgeLabel;html=1;align=center;verticalAlign=middle;resizable=0;points=[];" parent="opmeOD8zLZbFtyZewvzy-49" vertex="1" connectable="0">
          <mxGeometry x="-0.1587" y="2" relative="1" as="geometry">
            <mxPoint as="offset" />
          </mxGeometry>
        </mxCell>
        <mxCell id="opmeOD8zLZbFtyZewvzy-48" value="Valid" style="rhombus;whiteSpace=wrap;html=1;" parent="1" vertex="1">
          <mxGeometry x="480" y="400" width="80" height="80" as="geometry" />
        </mxCell>
        <mxCell id="opmeOD8zLZbFtyZewvzy-54" style="edgeStyle=orthogonalEdgeStyle;rounded=0;orthogonalLoop=1;jettySize=auto;html=1;exitX=0.5;exitY=1;exitDx=0;exitDy=0;entryX=0.5;entryY=0;entryDx=0;entryDy=0;" parent="1" source="opmeOD8zLZbFtyZewvzy-52" target="koypFPOMvJZ9m-VjRx7N-133" edge="1">
          <mxGeometry relative="1" as="geometry" />
        </mxCell>
        <mxCell id="rjHiSlkUi8NLxCztOsMR-28" value="&lt;font style=&quot;font-size: 18px;&quot;&gt;&lt;b&gt;n&lt;/b&gt;&lt;/font&gt;" style="edgeLabel;html=1;align=center;verticalAlign=middle;resizable=0;points=[];" parent="opmeOD8zLZbFtyZewvzy-54" vertex="1" connectable="0">
          <mxGeometry x="-0.1167" y="-1" relative="1" as="geometry">
            <mxPoint as="offset" />
          </mxGeometry>
        </mxCell>
        <mxCell id="opmeOD8zLZbFtyZewvzy-52" value="Create" style="rhombus;whiteSpace=wrap;html=1;" parent="1" vertex="1">
          <mxGeometry x="783" y="540" width="80" height="80" as="geometry" />
        </mxCell>
        <mxCell id="oFCh7oF6AgB1M2i4GYe6-1" style="edgeStyle=orthogonalEdgeStyle;rounded=0;orthogonalLoop=1;jettySize=auto;html=1;entryX=0.45;entryY=0;entryDx=0;entryDy=0;entryPerimeter=0;" parent="1" source="opmeOD8zLZbFtyZewvzy-17" target="opmeOD8zLZbFtyZewvzy-20" edge="1">
          <mxGeometry relative="1" as="geometry" />
        </mxCell>
        <mxCell id="oFCh7oF6AgB1M2i4GYe6-2" style="edgeStyle=orthogonalEdgeStyle;rounded=0;orthogonalLoop=1;jettySize=auto;html=1;exitX=0.75;exitY=0;exitDx=0;exitDy=0;entryX=0.426;entryY=1.034;entryDx=0;entryDy=0;entryPerimeter=0;" parent="1" source="koypFPOMvJZ9m-VjRx7N-34" target="koypFPOMvJZ9m-VjRx7N-44" edge="1">
          <mxGeometry relative="1" as="geometry" />
        </mxCell>
        <mxCell id="eiq_rCYpfIqcew0OIlAt-7" style="edgeStyle=orthogonalEdgeStyle;rounded=0;orthogonalLoop=1;jettySize=auto;html=1;exitX=1;exitY=0.5;exitDx=0;exitDy=0;entryX=0;entryY=0.5;entryDx=0;entryDy=0;" parent="1" source="eiq_rCYpfIqcew0OIlAt-1" target="koypFPOMvJZ9m-VjRx7N-7" edge="1">
          <mxGeometry relative="1" as="geometry" />
        </mxCell>
        <mxCell id="eiq_rCYpfIqcew0OIlAt-10" value="&lt;font style=&quot;font-size: 18px;&quot;&gt;&lt;b&gt;n&lt;/b&gt;&lt;/font&gt;" style="edgeLabel;html=1;align=center;verticalAlign=middle;resizable=0;points=[];" parent="eiq_rCYpfIqcew0OIlAt-7" vertex="1" connectable="0">
          <mxGeometry x="0.0012" relative="1" as="geometry">
            <mxPoint as="offset" />
          </mxGeometry>
        </mxCell>
        <mxCell id="Fv_LEj7BHvBcjp2cqS1_-1" style="edgeStyle=orthogonalEdgeStyle;rounded=0;orthogonalLoop=1;jettySize=auto;html=1;exitX=0.5;exitY=1;exitDx=0;exitDy=0;entryX=0;entryY=0.5;entryDx=0;entryDy=0;" edge="1" parent="1" source="eiq_rCYpfIqcew0OIlAt-1" target="koypFPOMvJZ9m-VjRx7N-98">
          <mxGeometry relative="1" as="geometry" />
        </mxCell>
        <mxCell id="eiq_rCYpfIqcew0OIlAt-1" value="&lt;font style=&quot;font-size: 18px;&quot;&gt;Order_details&lt;/font&gt;" style="rhombus;whiteSpace=wrap;html=1;" parent="1" vertex="1">
          <mxGeometry x="-600" y="574" width="140" height="93.5" as="geometry" />
        </mxCell>
        <mxCell id="eiq_rCYpfIqcew0OIlAt-16" style="edgeStyle=orthogonalEdgeStyle;rounded=0;orthogonalLoop=1;jettySize=auto;html=1;exitX=1;exitY=0.5;exitDx=0;exitDy=0;entryX=0;entryY=0.5;entryDx=0;entryDy=0;" parent="1" source="eiq_rCYpfIqcew0OIlAt-11" target="koypFPOMvJZ9m-VjRx7N-133" edge="1">
          <mxGeometry relative="1" as="geometry" />
        </mxCell>
        <mxCell id="eiq_rCYpfIqcew0OIlAt-19" value="&lt;font style=&quot;font-size: 18px;&quot;&gt;&lt;b&gt;1&lt;/b&gt;&lt;/font&gt;" style="edgeLabel;html=1;align=center;verticalAlign=middle;resizable=0;points=[];" parent="eiq_rCYpfIqcew0OIlAt-16" vertex="1" connectable="0">
          <mxGeometry x="-0.1505" y="-1" relative="1" as="geometry">
            <mxPoint as="offset" />
          </mxGeometry>
        </mxCell>
        <mxCell id="eiq_rCYpfIqcew0OIlAt-11" value="Apply" style="rhombus;whiteSpace=wrap;html=1;" parent="1" vertex="1">
          <mxGeometry x="351" y="750" width="80" height="80" as="geometry" />
        </mxCell>
        <mxCell id="mKDojE47t6rF09U9NZ5u-3" value="&lt;font style=&quot;font-size: 14px;&quot;&gt;Date&lt;/font&gt;" style="ellipse;whiteSpace=wrap;html=1;fillColor=#CCCCFF;" parent="1" vertex="1">
          <mxGeometry x="-590" y="870" width="120" height="80" as="geometry" />
        </mxCell>
        <mxCell id="mKDojE47t6rF09U9NZ5u-4" value="&lt;font style=&quot;font-size: 14px;&quot;&gt;Action&lt;/font&gt;" style="ellipse;whiteSpace=wrap;html=1;fillColor=#CCCCFF;" parent="1" vertex="1">
          <mxGeometry x="-805" y="870" width="120" height="80" as="geometry" />
        </mxCell>
        <mxCell id="wmMdvwjblJrNHX8S_Hwi-11" style="edgeStyle=orthogonalEdgeStyle;rounded=0;orthogonalLoop=1;jettySize=auto;html=1;exitX=0.25;exitY=1;exitDx=0;exitDy=0;entryX=0.5;entryY=0;entryDx=0;entryDy=0;fillColor=#CCCCFF;" edge="1" parent="1" source="wmMdvwjblJrNHX8S_Hwi-10" target="mKDojE47t6rF09U9NZ5u-4">
          <mxGeometry relative="1" as="geometry" />
        </mxCell>
        <mxCell id="wmMdvwjblJrNHX8S_Hwi-12" style="edgeStyle=orthogonalEdgeStyle;rounded=0;orthogonalLoop=1;jettySize=auto;html=1;exitX=0.75;exitY=1;exitDx=0;exitDy=0;fillColor=#CCCCFF;" edge="1" parent="1" source="wmMdvwjblJrNHX8S_Hwi-10" target="mKDojE47t6rF09U9NZ5u-3">
          <mxGeometry relative="1" as="geometry" />
        </mxCell>
        <mxCell id="wmMdvwjblJrNHX8S_Hwi-10" value="&lt;font style=&quot;font-size: 18px;&quot;&gt;Transaction_history&lt;/font&gt;" style="rounded=1;whiteSpace=wrap;html=1;fillColor=#CCCCFF;" vertex="1" parent="1">
          <mxGeometry x="-735" y="750" width="190" height="80" as="geometry" />
        </mxCell>
      </root>
    </mxGraphModel>
  </diagram>
</mxfile>
